<?xml version="1.0" encoding="UTF-8" standalone="no"?>
<!-- Created with Inkscape (http://www.inkscape.org/) -->

<svg
   width="210mm"
   height="297mm"
   viewBox="0 0 210 297"
   version="1.1"
   id="svg1"
   xml:space="preserve"
   inkscape:version="1.4.2 (ebf0e940d0, 2025-05-08)"
   sodipodi:docname="image3.svg"
   xmlns:inkscape="http://www.inkscape.org/namespaces/inkscape"
   xmlns:sodipodi="http://sodipodi.sourceforge.net/DTD/sodipodi-0.dtd"
   xmlns:xlink="http://www.w3.org/1999/xlink"
   xmlns="http://www.w3.org/2000/svg"
   xmlns:svg="http://www.w3.org/2000/svg"><sodipodi:namedview
     id="namedview1"
     pagecolor="#ffffff"
     bordercolor="#000000"
     borderopacity="0.25"
     inkscape:showpageshadow="2"
     inkscape:pageopacity="0.0"
     inkscape:pagecheckerboard="0"
     inkscape:deskcolor="#d1d1d1"
     inkscape:document-units="mm"
     inkscape:zoom="0.59802878"
     inkscape:cx="228.24988"
     inkscape:cy="565.19019"
     inkscape:window-width="1920"
     inkscape:window-height="1029"
     inkscape:window-x="0"
     inkscape:window-y="27"
     inkscape:window-maximized="1"
     inkscape:current-layer="layer1" /><defs
     id="defs1"><inkscape:path-effect
       effect="powerclip"
       message=""
       id="path-effect15"
       is_visible="true"
       lpeversion="1"
       inverse="true"
       flatten="false"
       hide_clip="false" /><clipPath
       clipPathUnits="userSpaceOnUse"
       id="clipPath13"><ellipse
         style="opacity:0.8;fill:#474747;fill-opacity:1;fill-rule:evenodd;stroke:none;stroke-width:0.103277;stroke-dasharray:none;stroke-opacity:1"
         id="ellipse13"
         cx="105.98439"
         cy="120.41518"
         rx="69.081619"
         ry="67.222916" /></clipPath><clipPath
       clipPathUnits="userSpaceOnUse"
       id="clipPath15"><circle
         style="display:none;opacity:0.8;fill:#ffffff;fill-opacity:1;fill-rule:evenodd;stroke:none;stroke-width:3.99113;stroke-dasharray:none;stroke-opacity:1"
         id="circle15"
         cx="105.52987"
         cy="122.28532"
         r="66.139885"
         d="M 171.66975,122.28532 A 66.139885,66.139885 0 0 1 105.52987,188.4252 66.139885,66.139885 0 0 1 39.389984,122.28532 66.139885,66.139885 0 0 1 105.52987,56.145432 66.139885,66.139885 0 0 1 171.66975,122.28532 Z" /><path
         id="lpe_path-effect15"
         style="opacity:0.8;fill:#ffffff;fill-opacity:1;fill-rule:evenodd;stroke:none;stroke-width:3.99113;stroke-dasharray:none;stroke-opacity:1"
         class="powerclip"
         d="M 31.803139,49.028969 H 179.66807 V 196.8939 H 31.803139 Z M 171.66975,122.28532 A 66.139885,66.139885 0 0 0 105.52987,56.145432 66.139885,66.139885 0 0 0 39.389984,122.28532 66.139885,66.139885 0 0 0 105.52987,188.4252 66.139885,66.139885 0 0 0 171.66975,122.28532 Z" /></clipPath></defs><g
     inkscape:label="Layer 1"
     inkscape:groupmode="layer"
     id="layer1"><path
       style="opacity:0.8;fill:#090909;fill-opacity:1;fill-rule:evenodd;stroke:none;stroke-width:4.52048;stroke-dasharray:none;stroke-opacity:1"
       id="path14"
       inkscape:export-filename="image1.png"
       inkscape:export-xdpi="96"
       inkscape:export-ydpi="96"
       clip-path="url(#clipPath15)"
       inkscape:path-effect="#path-effect15"
       sodipodi:type="arc"
       sodipodi:cx="105.7356"
       sodipodi:cy="122.96143"
       sodipodi:rx="68.932465"
       sodipodi:ry="68.932465"
       d="M 174.66807,122.96143 A 68.932465,68.932465 0 0 1 105.7356,191.8939 68.932465,68.932465 0 0 1 36.803139,122.96143 68.932465,68.932465 0 0 1 105.7356,54.028969 68.932465,68.932465 0 0 1 174.66807,122.96143 Z" /><image
       width="144.11771"
       height="144.11771"
       preserveAspectRatio="none"
       xlink:href="../../Downloads/sverchock_icon_t.png"
       id="image1"
       x="33.539223"
       y="49.304173"
       inkscape:export-filename="image1.png"
       inkscape:export-xdpi="96"
       inkscape:export-ydpi="96" /><path
       style="fill:#3b3b3b;fill-opacity:1;stroke:none;stroke-width:0.1;stroke-dasharray:none;stroke-opacity:1"
       d="m 99.763297,187.4725 c -8.002631,-0.80728 -15.08007,-2.41254 -21.298649,-4.83082 -4.54358,-1.76691 -11.432751,-5.44414 -15.905572,-8.48993 l -1.233289,-0.83981 -9.55799,-0.0192 c -5.256895,-0.0105 -9.71986,-0.0337 -9.9177,-0.0514 -0.331221,-0.0296 -0.359709,-0.40662 -0.359709,-4.75981 v -4.72761 l 1.38745,8e-5 1.38745,8e-5 -0.07168,-2.72359 c -0.03943,-1.49798 -0.165464,-2.83812 -0.280086,-2.9781 -0.147849,-0.18056 -0.112091,-0.29146 0.123071,-0.38169 0.267963,-0.10284 0.331471,-0.45297 0.331471,-1.82747 0,-1.56638 -0.0546,-1.79093 -0.693329,-2.85166 -0.755884,-1.25527 -2.820583,-6.32429 -3.931007,-9.65098 -3.8063,-11.4032 -4.379256,-24.19092 -1.63184,-36.42074 1.825267,-8.124985 5.469278,-16.551311 10.206083,-23.600313 2.751775,-4.095012 7.852631,-9.748378 12.185625,-13.505537 10.026985,-8.694445 22.8283,-14.291676 36.486022,-15.953102 4.029932,-0.49023 12.553382,-0.488038 16.333432,0.0042 13.11413,1.707726 23.91531,5.952754 33.48788,13.16125 6.66076,5.015782 11.44644,10.048628 15.9458,16.769332 3.25673,4.86459 4.77576,7.739561 6.72254,12.723408 1.73477,4.441052 2.56312,7.222092 3.44389,11.562442 2.80019,13.79891 1.82525,25.39914 -3.29108,39.15856 -2.51323,6.75886 -5.30117,11.6354 -10.5973,18.53633 -0.98383,1.28196 -2.11971,2.68848 -2.52416,3.12561 l -0.73535,0.79478 1.48676,0.0604 1.48676,0.0604 -0.0632,0.868 -0.0632,0.86799 3.04715,0.057 3.04715,0.0569 v 0.82219 0.8222 l -7.81083,0.10277 -7.81083,0.10277 -1.58399,1.07931 c -10.02975,6.83416 -20.15877,10.64989 -33.18447,12.50099 -2.13402,0.30328 -12.60141,0.57259 -14.563101,0.37471 z m 54.675813,-16.52441 v -0.51388 l -6.62892,-0.0542 -6.62894,-0.0542 v 0.62234 0.62234 l 6.62894,-0.0542 6.62892,-0.0542 z m -61.51955,-0.42281 c -0.08616,-0.58702 -0.0534,-0.62419 0.498082,-0.56525 0.579747,0.0619 0.590305,0.0447 0.590305,-0.96465 v -1.02774 l 0.770806,-0.0637 c 0.729949,-0.0604 0.770805,-0.10151 0.770805,-0.77521 0,-0.55938 -0.109821,-0.76146 -0.51387,-0.94556 -0.282628,-0.12877 -0.51387,-0.30794 -0.51387,-0.39816 0,-0.0902 0.884845,-0.69971 1.966321,-1.35445 1.081477,-0.65474 2.100063,-1.28293 2.263525,-1.39598 0.248183,-0.17166 0.183211,-0.37507 -0.393914,-1.2333 -0.826878,-1.22963 -3.835932,-6.21005 -3.835932,-6.34902 0,-0.0537 0.704573,-0.25445 1.565717,-0.44604 2.259831,-0.50277 6.632365,-0.34895 7.899305,0.27787 0.491,0.24294 0.91983,0.41459 0.95296,0.38147 0.0331,-0.0331 -0.25366,-1.16355 -0.63729,-2.51205 -0.38363,-1.3485 -0.76311,-2.76708 -0.8433,-3.1524 l -0.14578,-0.70057 1.9248,0.1275 c 2.13763,0.14161 3.87525,0.65442 5.38755,1.58999 l 0.99616,0.61628 -0.14697,-1.08296 c -0.0808,-0.59563 -0.4591,-2.60208 -0.8406,-4.45878 -0.3815,-1.8567 -0.65066,-3.41878 -0.59815,-3.47129 0.1774,-0.17742 2.05021,0.42477 3.70435,1.19111 3.06813,1.42141 6.59181,4.43636 8.44781,7.2282 1.02745,1.54551 2.06067,3.72365 2.73999,5.77615 0.25255,0.7631 0.50674,1.38745 0.56487,1.38745 0.0581,0 0.37309,-0.19042 0.69993,-0.42315 0.99307,-0.70712 3.9109,-1.97063 5.32732,-2.30689 2.80392,-0.66564 4.94964,-0.83368 7.17077,-0.5616 1.1434,0.14006 2.0789,0.27912 2.0789,0.30903 0,0.12956 -2.51093,4.54307 -2.685,4.7195 -0.30347,0.30756 -0.22639,0.52414 0.18655,0.52414 0.20857,0 0.96024,0.37552 1.67035,0.83449 l 1.29111,0.83448 1.99483,-0.52616 c 1.63203,-0.43047 2.4591,-0.52565 4.5475,-0.52335 2.51341,0.003 3.68751,0.13861 3.33074,0.38541 -0.0999,0.0691 -0.82241,0.99516 -1.60558,2.0579 l -1.42395,1.93226 0.065,1.40601 c 0.0623,1.34949 0.0436,1.41414 -0.46729,1.60836 -0.29272,0.11129 -0.53222,0.30453 -0.53222,0.42939 0,0.15485 0.65361,0.20658 2.05548,0.16268 1.43487,-0.0449 2.05548,-0.1394 2.05548,-0.31291 0,-0.14545 -0.36232,-0.27476 -0.87359,-0.31175 l -0.87357,-0.0632 -0.0602,-1.24625 c -0.0597,-1.2361 -0.0509,-1.25787 1.07867,-2.67213 0.94637,-1.18486 2.57862,-3.8825 2.57862,-4.26171 0,-0.057 -0.48561,-0.22845 -1.07913,-0.38104 -1.70385,-0.43805 -7.24003,-0.32111 -9.2854,0.19614 l -1.62874,0.41189 -0.63982,-0.51053 -0.63984,-0.51054 1.30048,-2.55293 c 0.71525,-1.40412 1.26313,-2.55295 1.21748,-2.55295 -0.0457,0 -0.58121,-0.10018 -1.19016,-0.22269 -0.60894,-0.12249 -2.26339,-0.28435 -3.67654,-0.35971 l -2.56934,-0.13701 -0.052,-34.15419 -0.052,-34.154182 1.46221,-0.558742 c 0.94471,-0.360993 1.50901,-0.483032 1.59443,-0.344823 0.0727,0.117656 0.16059,2.704895 0.19529,5.749419 l 0.063,5.535498 -1.04025,0.432307 c -0.9356,0.388817 -1.04025,0.496881 -1.04025,1.074195 0,0.5709 0.0512,0.62611 0.46248,0.499222 0.25437,-0.07847 0.71686,-0.272068 1.02774,-0.430227 0.55512,-0.282401 0.56526,-0.276464 0.56526,0.3309 0,0.53568 -0.13756,0.688168 -1.02774,1.139256 -0.71272,0.361165 -1.02774,0.64574 -1.02774,0.928429 0,0.488628 0.19132,0.504988 1.16222,0.09931 0.94852,-0.396318 0.89326,-0.420728 0.89326,0.394578 0,0.66094 -0.0613,0.72329 -1.02774,1.04426 -0.96795,0.3215 -1.02774,0.38249 -1.02774,1.04844 v 0.70708 l 0.81401,-0.41528 c 1.04227,-0.53173 1.24147,-0.52248 1.24147,0.0576 0,0.35485 -0.2244,0.58193 -0.89882,0.9096 -0.62665,0.30445 -0.9409,0.60429 -1.03775,0.99018 -0.0764,0.30441 -0.0959,0.59656 -0.0433,0.64919 0.0526,0.0526 0.51961,-0.0918 1.03775,-0.32103 l 0.94204,-0.4167 v 0.55902 c 0,0.45697 -0.15945,0.63307 -0.87357,0.96479 -0.6757,0.31385 -0.88832,0.53383 -0.93863,0.97103 -0.0757,0.65761 -0.0543,0.66359 0.91894,0.25694 0.93067,-0.38886 0.89326,-0.39576 0.89326,0.16459 0,0.35687 -0.22694,0.58316 -0.92497,0.9223 -0.73165,0.35546 -0.92496,0.55733 -0.92496,0.96592 0,0.60264 0.10714,0.62256 1.10541,0.20546 l 0.74452,-0.31108 v 0.57692 c 0,0.49196 -0.12867,0.62365 -0.87357,0.89411 -0.74826,0.27167 -0.88282,0.41047 -0.93799,0.96744 -0.0747,0.75419 -0.10385,0.74253 0.85489,0.34195 0.97324,-0.40665 0.9946,-0.40068 0.91894,0.25693 -0.0503,0.43721 -0.26293,0.65718 -0.93863,0.97103 -0.72272,0.33571 -0.87357,0.50503 -0.87357,0.98053 v 0.57476 l 0.814,-0.41527 c 1.02095,-0.52085 1.03593,-0.51967 1.03593,0.0816 0,0.39952 -0.18123,0.56608 -0.92497,0.85013 -0.84234,0.32169 -0.92496,0.41486 -0.92496,1.04306 v 0.68984 l 0.84261,-0.33714 c 0.71481,-0.28602 0.8702,-0.29356 1.02459,-0.0497 0.31105,0.49127 0.21919,0.60568 -0.83946,1.04564 -0.94212,0.39153 -1.02774,0.48415 -1.02774,1.11182 v 0.6847 l 0.95406,-0.40895 c 0.52473,-0.22493 0.97905,-0.38351 1.00958,-0.3524 0.0305,0.0311 0.005,0.31953 -0.0567,0.64094 -0.0864,0.44995 -0.31872,0.67291 -1.0096,0.96906 -0.77788,0.33343 -0.89734,0.46771 -0.89734,1.00859 0,0.73794 -0.001,0.73771 1.01365,0.22005 l 0.79173,-0.40392 0.0931,0.63414 c 0.0869,0.59251 0.0277,0.66131 -0.90269,1.04796 -0.85873,0.35687 -0.99576,0.49391 -0.99576,0.99576 v 0.58193 l 0.90411,-0.38754 0.90411,-0.38756 0.0949,0.49633 c 0.10851,0.56761 -0.0569,0.74094 -1.13229,1.1864 -0.60582,0.25095 -0.7708,0.43152 -0.7708,0.84365 0,0.60488 0.15682,0.63612 1.13712,0.22653 l 0.71281,-0.29783 v 0.58383 c 0,0.49009 -0.13313,0.6371 -0.82906,0.91556 -0.85764,0.34316 -1.1491,0.72667 -0.94886,1.2485 0.10139,0.2642 0.22073,0.26534 0.94697,0.009 0.82698,-0.29178 0.83095,-0.29074 0.83095,0.21888 0,0.41111 -0.18234,0.59022 -0.92497,0.90854 -0.76513,0.32798 -0.92496,0.49099 -0.92496,0.94336 0,0.57336 0.12692,0.58811 1.54834,0.17981 0.34403,-0.0988 0.42564,-0.0175 0.46208,0.46082 0.0399,0.52395 -0.0563,0.61657 -0.98308,0.94571 -0.74422,0.26433 -1.02734,0.4725 -1.02734,0.7554 0,0.57693 0.28035,0.65397 1.11333,0.30593 0.66729,-0.27881 0.75855,-0.27867 0.86601,0.001 0.1958,0.51022 -0.0543,0.86326 -0.70362,0.99312 -0.73762,0.14752 -1.27572,0.64715 -1.27572,1.18451 0,0.47463 0.19636,0.49165 1.13712,0.0986 l 0.71281,-0.29784 v 0.71402 c 0,0.59334 -0.0956,0.74789 -0.56526,0.91436 -0.88203,0.31261 -1.14191,0.50342 -1.19701,0.87887 -0.0774,0.52755 0.22771,0.60052 1.0589,0.25322 0.95835,-0.40041 0.90892,-0.41486 0.90892,0.26555 0,0.51422 -0.11132,0.61384 -0.97623,0.87357 -0.96767,0.2906 -1.25466,0.67012 -1.00289,1.32621 0.0949,0.24727 0.21892,0.24456 0.84862,-0.0186 0.85921,-0.35901 1.1305,-0.25575 1.1305,0.43026 0,0.41433 -0.15996,0.54195 -0.97635,0.77892 -0.81481,0.23651 -0.98712,0.37357 -1.0414,0.82841 -0.0762,0.63872 -0.0946,0.63365 0.85553,0.23669 1.02493,-0.42825 1.16222,-0.3937 1.16222,0.29239 0,0.51297 -0.11257,0.63695 -0.77081,0.84897 -1.03482,0.33331 -1.28467,0.56097 -1.28467,1.17053 0,0.54139 0.12845,0.55183 1.61105,0.13094 0.41721,-0.11843 0.47138,-0.0724 0.41109,0.34975 -0.0519,0.36365 -0.30252,0.57173 -0.9944,0.82569 -0.83942,0.30813 -0.93087,0.4084 -0.98876,1.08415 -0.0702,0.81876 0.0232,0.87075 0.78321,0.43629 0.78699,-0.44989 1.02774,-0.37615 1.02774,0.31477 0,0.41235 -0.12165,0.66218 -0.35971,0.73869 -1.28175,0.41187 -1.49022,0.55554 -1.49022,1.02695 0,0.57798 -0.0649,0.56612 1.01402,0.18546 l 0.86015,-0.30349 -0.0635,0.76597 c -0.0579,0.69871 -0.14091,0.79272 -0.94512,1.07071 -0.69007,0.23855 -0.86869,0.39485 -0.82218,0.71942 0.0624,0.43569 0.49568,0.5101 1.34409,0.23087 0.38282,-0.126 0.46248,-0.0766 0.46248,0.28702 0,0.33794 0.10667,0.4241 0.46249,0.37356 l 0.46248,-0.0656 0.0519,-36.63896 0.052,-36.638961 h 4.93259 4.93259 v 1.74716 c 0,0.960937 0.0694,1.736206 0.15417,1.722818 0.0848,-0.01339 0.54726,-0.01339 1.02774,0 l 0.87358,0.02434 v 37.306993 37.30699 h 0.71863 0.71864 l 0.0522,-26.25877 0.0522,-26.25878 1.07913,1.00449 1.07912,1.00447 0.003,28.80001 c 0.003,25.98414 0.0635,29.78164 0.46834,29.30792 3.02936,-3.54505 7.27951,-9.95752 9.38258,-14.15611 2.4345,-4.86027 4.41158,-10.63184 5.54391,-16.18408 1.03995,-5.09929 1.31561,-7.87675 1.31307,-13.23007 -0.003,-5.30777 -0.25478,-7.80209 -1.31878,-13.04018 -3.96476,-19.518337 -17.09509,-36.795184 -34.67389,-45.623785 -14.5268,-7.295805 -31.8827,-9.06477 -47.41876,-4.833066 -11.777831,3.208038 -20.805592,8.521478 -29.809489,17.544873 -5.139246,5.150375 -8.434736,9.689696 -11.581039,15.952123 -4.939308,9.831245 -7.213379,19.215795 -7.234458,29.854885 -0.02035,10.26932 1.647293,18.22844 5.647566,26.95407 0.541471,1.1811 0.808897,1.56731 0.972169,1.40404 0.137559,-0.13755 0.245003,-1.39021 0.276031,-3.21816 l 0.0508,-2.99294 -0.702041,-0.41421 c -1.31107,-0.77355 -1.653909,-2.77323 -0.787866,-4.59539 0.2059,-0.43321 1.037065,-1.50948 1.847037,-2.39169 1.62452,-1.76943 2.369906,-3.29653 2.369906,-4.85532 0,-0.76965 -0.06214,-0.90668 -0.411097,-0.90668 -0.228387,0 -0.411096,-0.13703 -0.411096,-0.30832 0,-0.19184 0.194129,-0.30833 0.51387,-0.30833 0.282629,0 0.502917,-0.0694 0.489529,-0.15415 -0.06981,-0.44208 0.04975,-0.87359 0.24202,-0.87359 0.119724,0 0.165672,0.0841 0.102108,0.187 -0.201245,0.32562 0.120052,0.84074 0.524397,0.84074 0.214008,0 0.389106,0.13875 0.389106,0.30833 0,0.17129 -0.18271,0.30832 -0.411097,0.30832 -0.327269,0 -0.410599,0.13622 -0.408657,0.66803 0.004,1.09372 0.933294,4.05958 1.271998,4.05958 0.08612,0 0.214606,-0.23124 0.285541,-0.51388 0.157975,-0.62941 0.431424,-0.67768 0.409051,-0.0722 -0.0089,0.24292 0.08917,0.47849 0.218106,0.52349 0.296534,0.10349 0.494286,-1.62972 0.207802,-1.82129 -0.207456,-0.13872 0.200643,-1.79668 2.319009,-9.42129 0.742479,-2.6724 1.023059,-4.01647 0.943995,-4.52207 -0.06188,-0.39567 -0.02777,-0.84948 0.07582,-1.00845 0.135681,-0.20826 -0.0073,-0.47359 -0.511689,-0.94925 -0.976608,-0.92105 -0.981584,-1.94193 -0.01391,-2.85456 0.636305,-0.60011 0.696319,-0.76968 0.827002,-2.33669 l 0.140909,-1.68961 h -0.518679 c -0.381649,0 -0.518681,-0.10861 -0.518681,-0.4111 0,-0.30607 0.137032,-0.4111 0.536359,-0.4111 0.492443,0 0.529449,-0.0592 0.451961,-0.72292 -0.05219,-0.44702 -0.0019,-0.69594 0.131673,-0.6522 0.118839,0.0389 0.244351,0.35477 0.278916,0.70194 0.0418,0.4198 0.196707,0.66624 0.462484,0.73574 0.512212,0.13394 0.524954,0.75964 0.01547,0.75964 -0.343992,0 -0.385514,0.18236 -0.397042,1.74384 -0.01259,1.70443 3.47e-4,1.75165 0.5722,2.08945 1.209342,0.71438 1.331921,1.86799 0.307353,2.89256 -0.572114,0.57212 -0.674255,0.78362 -0.487258,1.00893 0.137803,0.16604 0.18696,0.59092 0.117727,1.01755 -0.0876,0.53983 0.475947,3.09376 2.142691,9.71042 1.243855,4.93785 2.2183,9.20917 2.165432,9.49179 -0.05287,0.28264 -0.207364,0.90514 -0.343325,1.38334 -0.345147,1.21394 -0.106548,2.72764 0.429949,2.72764 0.340468,0 0.398501,-0.14773 0.398501,-1.01436 0,-1.44991 0.281642,-2.02474 1.617908,-3.30216 0.650428,-0.62178 1.342252,-1.36176 1.537388,-1.64439 0.279287,-0.4045 0.380044,-0.44825 0.473446,-0.20555 0.06526,0.16959 0.698277,0.86331 1.406704,1.54162 1.687619,1.61587 1.953193,2.17345 1.953193,4.10075 0,1.38275 0.04218,1.55183 0.387123,1.55183 0.694763,0 0.86223,-1.85127 0.329686,-3.64454 -0.232877,-0.78417 -0.663474,-1.42564 -1.715297,-2.55527 -1.717867,-1.84494 -1.879188,-2.13869 -1.879188,-3.42175 0,-1.54536 -0.201115,-2.30024 -0.612821,-2.30024 -0.292236,0 -0.38024,0.26653 -0.492059,1.49022 -0.08649,0.94655 -0.326865,1.88213 -0.658871,2.56443 -0.530037,1.0893 -1.479148,2.05033 -1.736152,1.75798 -0.17491,-0.19897 -1.052539,-3.07557 -1.647963,-5.40153 -0.628279,-2.4543 -0.495318,-6.87815 0.330221,-10.98701 0.316909,-1.57731 0.6035,-2.77977 0.636867,-2.67213 0.141505,0.45653 0.745687,6.52702 0.83484,8.38801 l 0.09705,2.02584 8.458921,-0.1489 c 4.652407,-0.0819 8.482578,-0.16929 8.511491,-0.19422 0.02891,-0.0249 0.09558,-1.05453 0.148162,-2.28803 0.08877,-2.08255 0.641123,-8.60611 0.69863,-8.25108 0.01408,0.0869 0.313632,1.70564 0.665664,3.5971 0.616155,3.31057 0.639713,3.64243 0.630823,8.88603 l -0.0092,5.44703 -4.823635,2.15264 -4.823634,2.15263 -0.111571,0.82781 c -0.123826,0.91875 0.04612,26.37032 0.178798,26.77827 0.04596,0.14131 0.225216,0.25693 0.398341,0.25693 0.279477,0 0.314774,-1.51675 0.314774,-13.52634 v -13.52634 l 1.592999,-0.64089 c 0.876148,-0.35249 3.026696,-1.28995 4.778995,-2.08325 l 3.185996,-1.44237 3.905415,0.91004 c 6.024805,1.40389 12.035649,2.61755 12.191885,2.46169 0.07756,-0.0774 0.169423,-2.71276 0.204154,-5.85644 l 0.06315,-5.71576 1.170142,-0.52379 c 0.643581,-0.28808 1.910121,-0.83976 2.814531,-1.22595 l 1.64438,-0.70217 3.08323,1.04901 3.08322,1.049 0.0544,6.20539 0.0544,6.20539 -0.77379,-0.12365 c -1.36661,-0.21839 -1.39443,-0.20891 -1.34059,0.45685 0.0274,0.33915 0.39112,2.07206 0.8082,3.85089 0.41709,1.77883 0.7184,3.2721 0.66956,3.31835 -0.0489,0.0463 -0.69002,-0.0423 -1.42485,-0.19665 -0.73483,-0.15441 -2.4365,-0.34425 -3.78148,-0.42184 l -2.44543,-0.14108 0.12643,1.21445 c 0.0696,0.66795 0.1873,1.88207 0.26169,2.69806 l 0.13526,1.4836 -1.00226,-0.09 c -0.55125,-0.0496 -1.69599,-0.13851 -2.543879,-0.19769 -0.847886,-0.0592 -1.888474,-0.16651 -2.312417,-0.23852 -0.690508,-0.11727 -0.770806,-0.0853 -0.770806,0.30708 0,0.30096 -0.128617,0.43799 -0.411096,0.43799 -0.30147,0 -0.411097,-0.13703 -0.411097,-0.51387 0,-0.28263 -0.02926,-0.51387 -0.06503,-0.51387 -0.173979,0 -2.549417,-0.4472 -2.864038,-0.53919 -0.332856,-0.0973 -0.359709,0.16261 -0.359709,3.48181 0,4.10575 -0.14708,3.83222 2.06355,3.83766 l 1.138584,0.003 0.962954,1.5812 c 0.529624,0.86966 0.92135,1.6228 0.870501,1.67365 -0.05084,0.0509 -1.135285,0.11129 -2.409859,0.13431 l -2.317408,0.0419 -0.06504,0.54552 c -0.0519,0.43532 0.02077,0.54552 0.359709,0.54552 0.334912,0 0.42475,0.13042 0.42475,0.61664 0,0.52072 -0.07993,0.61665 -0.513871,0.61665 -0.471999,0 -0.51387,0.0754 -0.51387,0.92497 0,0.78793 0.0609,0.92496 0.411096,0.92496 0.319742,0 0.411097,0.13703 0.411097,0.61664 0,0.54813 -0.06851,0.61665 -0.616645,0.61665 H 91.64393 v 1.43884 1.43883 h 0.683819 c 0.64571,0 0.678679,-0.035 0.591597,-0.62835 z m 32.84558,-14.61305 c 0,-0.5963 -2.09254,-4.50561 -3.24038,-6.0537 -2.2233,-2.99855 -5.67709,-5.93195 -8.42448,-7.15514 l -0.87358,-0.38894 v -16.37232 -16.37232 l 2.41519,-0.99687 c 1.32835,-0.54829 2.96615,-1.27112 3.63953,-1.6063 1.48612,-0.73975 1.91011,-0.71538 6.42148,0.36912 3.03771,0.73025 3.17226,0.78569 4.88443,2.01257 l 1.76067,1.26164 -0.054,21.66219 -0.054,21.6622 -1.48157,0.37623 c -1.24773,0.31685 -2.1034,0.63685 -4.73626,1.7713 -0.14132,0.0609 -0.25694,-0.0155 -0.25694,-0.16966 z m 5.5498,-9.95114 c 0,-0.44714 -0.19469,-0.61503 -1.28819,-1.11086 -0.70852,-0.32125 -1.8416,-0.74118 -2.51797,-0.93319 -0.67638,-0.192 -1.41938,-0.46833 -1.65112,-0.61409 -0.39832,-0.25051 -2.86433,-0.72051 -3.78037,-0.72051 -0.33165,0 -0.42311,0.13128 -0.42311,0.60733 0,0.5414 0.0837,0.6216 0.7708,0.73879 2.0503,0.34967 4.45702,1.0086 6.32061,1.73049 1.13051,0.43793 2.1711,0.80356 2.31242,0.81252 0.14295,0.009 0.25693,-0.21742 0.25693,-0.51048 z m 0,-2.94239 c 0,-0.73222 -0.17874,-0.88176 -1.84993,-1.54771 -1.56475,-0.62354 -7.52649,-2.1876 -7.69524,-2.01885 -0.0635,0.0635 -0.11559,0.37111 -0.11559,0.68341 0,0.52731 0.0843,0.58436 1.18189,0.79986 3.09927,0.60852 6.47285,1.67054 7.83593,2.4668 0.53323,0.3115 0.64294,0.24606 0.64294,-0.38351 z m -0.44522,-3.76036 c -0.99296,-0.76885 -5.61539,-2.28566 -8.32467,-2.73167 l -0.8563,-0.14097 0.0341,0.6682 0.0341,0.66821 2.26103,0.4714 c 2.32807,0.48539 4.61665,1.21684 6.2576,2 l 0.93659,0.44699 0.0687,-0.50534 c 0.0464,-0.34095 -0.0874,-0.6262 -0.41109,-0.87682 z m 0.40749,-2.17431 c -0.0809,-0.7031 -1.29766,-1.40984 -3.97045,-2.30618 -1.48231,-0.4971 -5.11275,-1.41978 -5.66837,-1.44063 -0.0653,-0.002 -0.078,0.27227 -0.0283,0.61048 0.094,0.63992 0.3098,0.74632 2.30513,1.13627 1.16947,0.22855 5.59282,1.72214 6.37199,2.15158 0.95914,0.52862 1.06638,0.5122 0.99001,-0.15152 z m -0.16781,-3.13116 c 0,-0.53047 -0.14057,-0.6844 -1.04217,-1.14128 -1.39995,-0.7094 -4.41323,-1.6832 -6.61451,-2.13758 l -1.79854,-0.37127 v 0.65512 c 0,0.64523 0.0209,0.65915 1.38745,0.92347 1.7479,0.3381 4.79154,1.29614 6.5867,2.0733 0.75806,0.32818 1.40141,0.6 1.42968,0.60406 0.0283,0.004 0.0514,-0.26856 0.0514,-0.60582 z m 0.11934,-2.80998 c -0.0715,-0.67028 -0.6123,-1.07363 -2.52761,-1.88509 -1.43927,-0.60977 -6.08542,-1.88593 -6.86617,-1.88593 -0.28698,0 -0.38633,0.14946 -0.38633,0.58112 0,0.5549 0.0623,0.5926 1.38159,0.83568 1.81267,0.334 5.41659,1.52265 6.84033,2.25609 1.46416,0.75426 1.62925,0.76466 1.55819,0.0982 z m 0.0479,-2.99995 c -0.0571,-0.59244 -0.20872,-0.73958 -1.34362,-1.30415 -1.53333,-0.7628 -4.06198,-1.58797 -6.49617,-2.11991 l -1.7826,-0.38956 6.4e-4,0.6477 6.4e-4,0.64769 2.209,0.47842 c 2.20022,0.47652 5.98602,1.82 6.74383,2.39321 0.60017,0.45397 0.73908,0.38051 0.66828,-0.3534 z m 0.0961,-2.96313 c -0.0829,-0.54405 -0.2891,-0.75007 -1.26032,-1.25949 -1.45148,-0.76132 -3.20492,-1.3606 -5.87061,-2.00643 -2.67366,-0.64775 -2.79305,-0.64468 -2.79305,0.0718 0,0.5694 0.0242,0.57996 2.62074,1.14443 2.39262,0.52014 5.88877,1.78851 6.91909,2.51017 0.49882,0.34938 0.50625,0.34048 0.38415,-0.46048 z m -0.0576,-2.94405 c 0,-0.55274 -0.14012,-0.68464 -1.40284,-1.32053 -1.40996,-0.71005 -4.19214,-1.67496 -6.54044,-2.26834 -1.78173,-0.45022 -1.92303,-0.42865 -1.92303,0.29359 0,0.46926 0.10829,0.63575 0.46249,0.71102 3.32132,0.70589 8.43383,2.40237 9.08523,3.01475 0.2918,0.27432 0.31859,0.23812 0.31859,-0.43049 z m 0,-3.05718 c 0,-0.50692 -0.16296,-0.67348 -1.1819,-1.2079 -1.29348,-0.67843 -4.14258,-1.64949 -6.76595,-2.30604 -0.92325,-0.23106 -1.7326,-0.42011 -1.79855,-0.42011 -0.066,0 -0.11991,0.30491 -0.11991,0.67758 0,0.67589 0.003,0.67817 1.38745,0.91643 1.75561,0.30223 5.54907,1.55406 7.03429,2.32131 0.62494,0.32283 1.20562,0.59141 1.29041,0.59685 0.0848,0.005 0.15416,-0.25471 0.15416,-0.57812 z m -0.16065,-3.1047 c -0.0998,-0.67971 -0.74942,-1.1443 -2.71964,-1.94487 -1.33845,-0.54386 -5.05831,-1.66571 -6.21521,-1.8744 -0.75365,-0.13596 -0.77081,-0.12499 -0.77081,0.49254 0,0.5712 0.0835,0.65285 0.87358,0.85368 2.85659,0.72618 4.81137,1.35966 6.62892,2.14823 1.13053,0.49049 2.10884,0.90136 2.17405,0.91305 0.0652,0.0117 0.0783,-0.25301 0.0291,-0.58823 z m -67.899614,12.17158 c -0.121102,-0.7838 0.107747,-1.82275 0.63603,-2.88751 0.347885,-0.70117 0.699317,-1.26958 0.780959,-1.26314 0.341227,0.0269 1.674492,2.06012 1.804164,2.75133 0.167003,0.89021 0.518873,0.86122 0.758225,-0.0624 0.09449,-0.36465 0.502092,-1.09834 0.905778,-1.6304 0.892398,-1.1762 0.997322,-1.2781 0.826342,-0.80255 -0.07324,0.2037 -0.04985,0.31889 0.05198,0.25595 0.363746,-0.22481 1.45453,1.44717 1.45453,2.22952 0,0.60273 0.07636,0.74123 0.408667,0.74123 0.31612,0 0.43771,-0.18163 0.536914,-0.80201 0.09169,-0.57337 0.376102,-1.04527 0.997647,-1.65527 l 0.8694,-0.85324 0.751942,1.09178 c 0.413567,0.60049 0.751941,1.33669 0.751941,1.63602 0,0.44304 0.07644,0.52424 0.411096,0.43673 0.292261,-0.0764 0.411097,-0.28037 0.411097,-0.70552 0,-0.53001 1.314826,-2.6499 1.636873,-2.63912 0.06066,0.002 0.410901,0.46345 0.778318,1.02536 0.521658,0.7978 0.668032,1.24032 0.668032,2.01961 v 0.99795 l -3.237384,0.13427 c -4.407196,0.18278 -12.173266,0.171 -12.202549,-0.0186 z m 2.749332,-4.02547 c -0.456154,-0.49487 -0.945467,-1.11669 -1.087361,-1.38182 l -0.257991,-0.48206 -0.677767,0.80729 c -0.372772,0.44402 -0.75268,0.73249 -0.844241,0.64105 -0.227189,-0.2269 -0.211651,-10.19535 0.01841,-11.81111 0.221029,-1.55231 0.526734,-1.31557 0.531386,0.41152 0.0034,1.25128 0.272075,2.22303 0.614704,2.22303 0.138381,0 0.210636,-1.82193 0.210636,-5.31126 v -5.31126 l 0.5038,-0.22955 c 1.521892,-0.69342 7.82036,-0.83078 10.961652,-0.23905 l 1.290817,0.24315 -0.01933,5.37259 c -0.01544,4.2904 0.03467,5.37261 0.248776,5.37261 0.332153,0 0.518258,-0.82914 0.576714,-2.56936 l 0.04488,-1.33606 0.416583,1.84994 c 0.34004,1.51001 0.42124,2.64304 0.441924,6.16644 0.01393,2.37407 -0.04515,4.56829 -0.131302,4.87604 l -0.15664,0.55953 -0.71841,-0.76508 -0.718409,-0.76508 -0.461014,0.52437 c -0.253556,0.28839 -0.697137,0.83433 -0.985735,1.21319 -0.517145,0.6789 -0.532419,0.6838 -1.05793,0.33947 -0.293265,-0.19216 -0.786569,-0.71497 -1.096232,-1.16182 -0.309662,-0.44684 -0.619814,-0.80745 -0.689228,-0.80136 -0.06942,0.006 -0.533147,0.58122 -1.030519,1.27803 l -0.904312,1.26695 -0.32865,-0.50722 c -0.180758,-0.27897 -0.661129,-0.86875 -1.067491,-1.31061 l -0.738841,-0.80339 -0.625011,0.90616 c -0.343756,0.49839 -0.807144,1.07003 -1.02975,1.27033 -0.39232,0.35298 -0.430189,0.33655 -1.23411,-0.5356 z m 6.606406,-4.97194 c 1.017946,-0.42533 2.325045,-1.64266 2.833111,-2.63855 1.763701,-3.45715 -0.842629,-7.94749 -4.608894,-7.94051 -1.980442,0.004 -4.222557,1.52879 -5.006757,3.40564 -0.381039,0.91196 -0.367589,3.13559 0.02464,4.07435 0.566175,1.35504 2.107999,2.78511 3.489648,3.23671 0.76638,0.25051 2.51561,0.17683 3.268247,-0.13764 z m -2.952416,-0.94831 c -1.613699,-0.48061 -2.802623,-1.98903 -3.020992,-3.8328 -0.311664,-2.63153 2.166919,-5.06913 4.759089,-4.68041 2.396273,0.35934 4.144812,3.23904 3.392077,5.58647 -0.726084,2.26432 -2.999528,3.56131 -5.130174,2.92674 z m 2.510455,-4.00811 c 1.063252,-0.32269 1.07244,-0.33342 0.769535,-0.89941 -0.176163,-0.32916 -0.298424,-0.35451 -0.824766,-0.17103 -0.830286,0.28944 -1.228867,0.0983 -1.232251,-0.59094 -0.0043,-0.88619 -0.222593,-1.49668 -0.535037,-1.49668 -0.215271,0 -0.284349,0.35282 -0.284349,1.45235 0,1.64398 0.260462,2.35285 0.786569,2.1407 0.18917,-0.0763 0.783305,-0.27202 1.320299,-0.43499 z m -1.883818,-7.2951 0.531372,-0.64643 0.458979,0.64457 c 0.445486,0.62563 1.253177,0.88771 1.253177,0.40663 0,-0.30354 -1.636348,-2.43417 -1.86947,-2.43417 -0.227893,0 -1.624849,2.07408 -1.624849,2.41244 0,0.48548 0.717464,0.26577 1.250791,-0.38304 z m -5.772851,-6.99129 c 0,-2.283316 0.10895,-3.397367 0.535752,-5.4783 0.294663,-1.436669 0.566679,-2.645193 0.60448,-2.685608 0.0378,-0.04041 0.222305,0.454806 0.41001,1.100489 0.187705,0.645682 0.622419,1.774746 0.966033,2.50903 0.437815,0.935589 0.655346,1.76266 0.726999,2.764118 0.09371,1.309682 0.138435,1.423879 0.535447,1.367091 0.358495,-0.05128 0.476008,-0.292363 0.681448,-1.398027 0.136537,-0.734836 0.256418,-1.70605 0.266401,-2.158256 0.01389,-0.629346 0.183813,-1.009781 0.724444,-1.621959 0.804044,-0.910455 0.931625,-0.873545 1.98299,0.573671 0.53521,0.736722 0.582375,0.94897 0.582375,2.620739 v 1.819093 h 0.64135 0.641349 l -0.102386,-1.284676 c -0.09657,-1.211735 -0.04601,-1.401382 0.890598,-3.340158 0.546142,-1.130515 1.049801,-2.240475 1.119245,-2.466578 0.1851,-0.602669 0.3703,-0.155312 0.89349,2.158256 0.573291,2.535111 0.73626,8.341975 0.232865,8.297395 -0.169577,-0.0151 -1.091074,-0.18924 -2.047773,-0.38717 -2.122935,-0.43921 -7.692624,-0.3373 -9.308763,0.17035 l -0.976354,0.30667 z m 3.000953,-5.855681 c -0.247739,-0.602276 -0.37706,-1.363682 -0.353591,-2.081862 0.03547,-1.085581 2.904303,-14.698194 3.338024,-15.838943 0.283964,-0.746869 0.456659,-0.398299 0.897516,1.811557 0.191702,0.960938 0.941394,4.30935 1.66598,7.440915 1.484836,6.417257 1.583449,7.488288 0.79615,8.646902 -0.286704,0.421923 -0.5905,0.767134 -0.675101,0.767134 -0.341782,0 -0.826632,-1.202323 -0.953233,-2.363805 -0.14853,-1.362673 -1.323156,-4.736194 -1.559581,-4.47911 -0.393442,0.427822 -1.635057,4.007003 -1.635057,4.713351 0,0.7795 -0.568583,2.14865 -0.943491,2.271927 -0.102863,0.03382 -0.36279,-0.365806 -0.577616,-0.888066 z m 3.011331,-1.266483 c -0.749509,-0.0778 -0.785691,-0.214127 -0.419852,-1.581958 0.268883,-1.00532 0.584873,-1.285097 0.409602,-0.362659 -0.0953,0.501548 -0.06994,0.534305 0.225048,0.290626 0.486623,-0.401987 0.761556,-0.117326 0.761556,0.788502 0,0.908882 -0.05852,0.960762 -0.976354,0.865489 z M 69.32999,75.008475 c 0.265492,-0.745165 0.253537,-0.793026 -0.359404,-1.438837 l -0.63403,-0.668032 h 0.870943 c 0.825225,0 0.88984,-0.04449 1.230928,-0.847618 l 0.359984,-0.84762 0.382223,0.84762 c 0.356213,0.789942 0.438662,0.847618 1.211655,0.847618 h 0.829431 l -0.587777,0.613508 c -0.548473,0.572482 -0.572108,0.664559 -0.353455,1.376996 0.128878,0.41992 0.202736,0.795078 0.16413,0.833684 -0.03861,0.03861 -0.398993,-0.123805 -0.80086,-0.360913 l -0.730666,-0.431103 -0.828661,0.422752 c -0.455765,0.232512 -0.873753,0.422751 -0.928865,0.422751 -0.05511,0 0.02338,-0.346863 0.174424,-0.770806 z m -8.882736,93.158785 c 0.05634,-1.07725 0.138323,-1.99332 0.182169,-2.03572 0.146289,-0.14146 3.335806,-0.30222 6.194778,-0.31225 2.73322,-0.01 2.826287,-0.0242 2.826287,-0.44264 v -0.43273 l -11.973181,0.0748 c -6.58525,0.0411 -12.084763,0.1463 -12.22114,0.23377 -0.136377,0.0874 -0.195853,0.29481 -0.13217,0.46076 0.096,0.25015 0.762135,0.30174 3.896438,0.30174 3.617343,0 3.780651,0.0174 3.780651,0.4027 0,0.22148 0.10374,1.10021 0.230535,1.95271 0.193011,1.29772 0.293379,1.55001 0.616644,1.55001 0.344817,0 0.38611,-0.17166 0.38611,-1.6051 0,-1.87746 0.245525,-2.36888 1.132425,-2.26656 0.543537,0.0627 0.624803,0.1781 0.888117,1.26124 0.368233,1.5147 0.884266,1.56209 1.093353,0.1004 0.07581,-0.53 0.197881,-1.06078 0.271263,-1.17952 0.163843,-0.2651 1.274293,-0.2869 1.434208,-0.0282 0.06381,0.10326 0.169557,0.91259 0.234992,1.79856 0.147956,2.00325 0.186049,2.12468 0.666532,2.12468 0.347934,0 0.400483,-0.2092 0.491989,-1.95863 z m 29.552504,-2.14302 v -3.0739 l -0.668032,-0.12163 c -0.367417,-0.0668 -2.009234,-0.0943 -3.64848,-0.0607 l -2.980449,0.0609 -0.05746,2.86778 c -0.0316,1.57728 -0.01138,2.98786 0.04493,3.13461 0.07855,0.2047 0.941426,0.26683 3.705938,0.26683 h 3.603544 z m 55.988662,-0.48919 c 1.31438,-1.67708 2.33745,-3.1339 2.2735,-3.23739 -0.34863,-0.56408 -4.77726,0.26486 -5.93405,1.11073 -0.37675,0.27549 -0.37749,0.33695 -0.0267,2.21575 0.19844,1.06283 0.45089,2.29207 0.561,2.73167 0.2407,0.961 -0.0267,1.20231 3.12625,-2.82076 z m -27.31469,-1.07715 c 2.18075,-1.99337 5.87133,-5.27035 6.01282,-5.33897 0.29047,-0.14088 -2.13757,-5.52267 -3.3388,-7.40049 -0.99125,-1.54959 -3.13517,-3.77689 -4.72951,-4.91346 -1.30681,-0.9316 -4.60265,-2.66885 -4.76162,-2.50987 -0.0518,0.0518 0.0453,0.77454 0.21589,1.60599 0.4371,2.13043 1.29075,8.49905 1.67664,12.50855 0.17953,1.86535 0.45641,4.6865 0.6153,6.26921 0.15888,1.58273 0.29162,3.01208 0.29498,3.17633 0.004,0.18906 0.28896,0.0342 0.77692,-0.422 0.42394,-0.39635 1.88076,-1.73523 3.23738,-2.97529 z m 23.11709,3.2528 c -0.004,-0.0848 -0.21275,-1.02597 -0.46411,-2.09152 l -0.45704,-1.93736 -1.43721,-1.09929 c -1.28254,-0.981 -2.82556,-1.72252 -3.07185,-1.47623 -0.0497,0.0497 0.172,1.15137 0.49272,2.44813 0.32071,1.29675 0.64124,2.61209 0.71227,2.92299 0.10101,0.44199 0.25157,0.56827 0.69051,0.57907 0.30874,0.008 1.16257,0.18308 1.8974,0.38994 1.60961,0.45311 1.64626,0.45903 1.63731,0.26427 z m -17.57722,-4.24123 c 0.18248,-1.45652 0.30262,-2.6774 0.26697,-2.71304 -0.0775,-0.0775 -4.84116,4.07719 -4.86519,4.24328 -0.009,0.0635 0.42268,0.22897 0.95967,0.36788 0.53699,0.13892 1.43884,0.50804 2.0041,0.82026 0.87958,0.48584 1.04755,0.52171 1.1652,0.24877 0.0756,-0.1754 0.28676,-1.51062 0.46925,-2.96715 z m -15.62699,1.36356 c 0.30089,-0.9892 1.20192,-3.81537 2.00228,-6.28038 l 1.45522,-4.48183 -0.48784,-0.52561 c -1.25361,-1.35069 -3.88982,-2.71082 -5.90415,-3.04618 -0.80976,-0.13482 -0.88333,-0.11285 -0.7783,0.23238 0.0639,0.20971 0.21429,1.02876 0.33443,1.82012 0.12013,0.79136 0.44275,2.59504 0.71693,4.00819 0.27418,1.41314 0.68724,3.72556 0.91791,5.1387 0.59513,3.64587 0.86736,4.93315 1.04322,4.93315 0.0843,0 0.39942,-0.80934 0.7003,-1.79854 z m 26.09986,0.24441 1.00772,-1.54882 -0.36227,-1.68591 c -0.19923,-0.92725 -0.39873,-1.8101 -0.44331,-1.96188 -0.0626,-0.21329 0.17945,-0.25998 1.06551,-0.20556 l 1.14658,0.0705 0.92655,-1.69448 0.92656,-1.69447 -0.58205,-0.22751 c -0.78615,-0.30728 -4.95605,-0.1018 -6.54295,0.32243 -1.55418,0.41548 -5.85812,2.54061 -5.85812,2.89253 0,0.14494 1.41057,1.55652 3.13461,3.13685 1.72403,1.58032 3.40628,3.16069 3.73833,3.51192 0.33204,0.35123 0.65577,0.6374 0.71941,0.63594 0.0636,-0.001 0.56918,-0.69963 1.12343,-1.55148 z m -8.02967,0.83469 c 0.8861,-0.16957 2.20417,-0.3083 2.92906,-0.3083 0.7249,0 1.3109,-0.0694 1.30223,-0.15415 -0.009,-0.0848 -1.188,-1.14867 -2.62074,-2.36418 l -2.60498,-2.21 -0.24228,1.79891 c -0.13326,0.9894 -0.3008,2.19202 -0.37231,2.67249 -0.0715,0.48046 -0.10122,0.87356 -0.0661,0.87354 0.0352,-1e-5 0.78897,-0.13876 1.67506,-0.30831 z m -13.54342,-4.21827 c -0.27683,-2.31284 -0.50333,-4.50667 -0.50333,-4.8752 0,-0.36852 -0.0924,-0.67005 -0.20554,-0.67005 -0.11305,0 -0.20744,0.16188 -0.20976,0.35972 -0.002,0.19784 -0.59295,2.1634 -1.31252,4.36789 l -1.30832,4.0082 1.56946,0.3145 c 0.86321,0.17298 1.75368,0.4204 1.97884,0.54985 0.22517,0.12943 0.42853,0.21618 0.45194,0.19278 0.0234,-0.0234 -0.18395,-1.93486 -0.46077,-4.24769 z m -7.41892,-0.70066 c -0.32105,-1.98621 -0.63639,-3.61129 -0.70076,-3.61129 -0.0885,0 -1.56106,3.22078 -2.82102,6.17019 -0.0314,0.0737 0.56976,0.24817 1.33606,0.38785 0.7663,0.13968 1.67075,0.37309 2.00991,0.51868 0.33915,0.14558 0.6488,0.23795 0.68809,0.20528 0.0393,-0.0327 -0.19123,-1.6845 -0.51228,-3.67071 z m -3.37764,-0.7259 c 0.80007,-1.85968 1.45467,-3.49734 1.45467,-3.63926 0,-0.52766 -3.922197,-1.18976 -5.858127,-0.98889 -1.679491,0.17425 -2.00394,0.28503 -1.868507,0.63796 0.179095,0.46671 4.679534,7.50917 4.752244,7.43647 0.0357,-0.0357 0.71965,-1.58661 1.51972,-3.44628 z m -32.699475,0.79426 c -0.05878,-2.09934 -0.124887,-2.51637 -0.424287,-2.67665 -0.521592,-0.27923 -0.652033,0.50092 -0.47866,2.86281 0.159194,2.16871 0.196935,2.30063 0.658143,2.30063 0.268726,0 0.304314,-0.3615 0.244804,-2.48679 z m -21.652189,0.8424 c 0.286437,-0.56525 0.593928,-1.02774 0.683313,-1.02774 0.08938,0 0.455907,0.41624 0.814493,0.92497 0.703478,0.99803 1.415629,1.28169 1.161105,0.46248 -0.07903,-0.25435 -0.508374,-1.19095 -0.954098,-2.08131 -0.570616,-1.13982 -0.874847,-1.55438 -1.028188,-1.40104 -0.240952,0.24095 -1.80714,3.68067 -1.80714,3.9689 0,0.0998 0.137186,0.18149 0.304859,0.18149 0.167673,0 0.539218,-0.46248 0.825656,-1.02775 z m 16.43764,-0.1151 c 0.190802,-0.49961 0.432433,-0.96124 0.536958,-1.02584 0.104526,-0.0646 0.481054,0.35068 0.836729,0.92284 0.599036,0.96365 0.951708,1.22195 1.254699,0.91896 0.122167,-0.12216 -1.525938,-3.01756 -2.028292,-3.56331 -0.227615,-0.24727 -0.402659,-0.0162 -1.119597,1.47794 -0.467391,0.97406 -0.80171,1.84884 -0.74293,1.94395 0.05877,0.0951 0.288817,0.18662 0.511195,0.20338 0.300207,0.0226 0.493658,-0.20346 0.751238,-0.87792 z m -7.610791,-0.0775 c 0.47053,-0.51993 0.253147,-0.83515 -0.575944,-0.83515 -0.910239,0 -1.260852,0.36951 -0.816508,0.8605 0.436689,0.48253 0.941134,0.47335 1.392452,-0.0253 z m 3.739195,-0.1325 c 0.02788,-0.10383 -0.218525,-0.40163 -0.547557,-0.66179 -0.463321,-0.36633 -0.680752,-0.42506 -0.964111,-0.2604 -0.706788,0.41071 -1.125436,0.81049 -1.022777,0.97667 0.142283,0.23033 2.471423,0.18026 2.534445,-0.0545 z m -1.776218,-2.41994 c 0.698647,-0.47872 0.713184,-0.47986 1.330263,-0.10354 1.191405,0.72654 1.543467,0.31408 0.585441,-0.68588 -0.659644,-0.68852 -1.323646,-0.73232 -2.152676,-0.142 l -0.610208,0.43451 -0.449264,-0.41089 c -0.780623,-0.71393 -1.219249,-0.71964 -2.261234,-0.0294 -0.529612,0.3508 -0.962929,0.7245 -0.962929,0.83044 0,0.42317 0.693466,0.4178 1.456903,-0.0112 l 0.806723,-0.45341 0.666733,0.52547 c 0.366704,0.28901 0.715592,0.52651 0.775308,0.52776 0.05972,0.001 0.426439,-0.21553 0.81494,-0.48173 z m 32.272517,-3.50219 c 0,-4.05893 0.161078,-3.7335 -1.955291,-3.95033 l -1.33348,-0.13662 v 3.71751 3.71751 l 1.079128,0.0755 c 0.59352,0.0416 1.333494,0.0927 1.644385,0.11352 l 0.565258,0.038 z m -4.392017,1.57101 c -0.06185,-0.9892 -0.116415,-2.69037 -0.12125,-3.78036 -0.0101,-2.27671 0.173124,-2.09923 -2.423984,-2.34791 l -1.490225,-0.14268 v 3.91956 3.91957 l 0.770806,0.0806 c 0.423944,0.0444 1.357224,0.0962 2.073958,0.11519 l 1.303152,0.0345 z m -17.675055,-0.56288 c -0.126207,-0.32888 -1.01272,-0.45676 -4.191708,-0.60462 -2.303475,-0.10714 -2.312417,-0.10573 -2.312417,0.36254 0,0.45734 0.08785,0.47813 3.237384,0.76599 3.367828,0.30782 3.573263,0.27488 3.266741,-0.52391 z m -16.987082,0.31526 c 0,-0.5336 -0.71357,-0.64488 -3.699867,-0.57695 -2.276101,0.0518 -2.366241,0.071 -2.429488,0.51625 -0.06562,0.46206 -0.06284,0.46248 3.031836,0.46248 2.936551,0 3.097519,-0.0209 3.097519,-0.40178 z m 4.890774,-2.23541 c 0.05601,-1.36697 0.02994,-1.47378 -0.359709,-1.47378 -0.382118,0 -0.420102,0.127 -0.420102,1.40458 0,0.77252 0.06359,1.46818 0.141315,1.5459 0.368107,0.3681 0.583294,-0.12957 0.638496,-1.4767 z m 2.303412,0.0679 c 0,-1.50736 -0.01142,-1.54162 -0.51387,-1.54162 -0.483232,0 -0.513704,0.0643 -0.511064,1.07913 0.0038,1.4724 0.173044,2.0041 0.637811,2.0041 0.344721,0 0.387123,-0.16886 0.387123,-1.54161 z m -12.477826,-0.9275 0.935064,-0.41362 0.735355,0.43387 0.735353,0.43387 0.647215,-0.40979 c 0.635691,-0.40249 0.666722,-0.40307 1.742895,-0.0328 0.698781,0.24042 1.141944,0.30211 1.223398,0.17032 0.148814,-0.24078 0.203613,-0.17467 -0.815291,-0.98368 -0.949383,-0.75381 -1.373288,-0.78831 -2.197613,-0.17886 -0.515408,0.38106 -0.682199,0.41469 -1.019418,0.20555 -0.221752,-0.13753 -0.577562,-0.35817 -0.790689,-0.49031 -0.471543,-0.29237 -1.261094,-0.007 -2.163688,0.78219 -0.479888,0.41957 -0.540986,0.55965 -0.308322,0.70693 0.159588,0.10103 0.301527,0.1851 0.315419,0.18682 0.01389,0.002 0.446037,-0.18297 0.960322,-0.41047 z m 23.37188,-0.1613 c 0,-0.27227 -1.511466,-1.63241 -1.964493,-1.76782 -0.314784,-0.0941 -0.539659,0.0315 -0.879732,0.49153 -0.554995,0.75067 -0.72721,0.76254 -1.509773,0.10406 -0.335885,-0.28263 -0.818031,-0.51388 -1.071434,-0.51388 -0.456649,0 -2.179851,1.1722 -2.179851,1.48283 0,0.25787 0.635578,0.18833 1.581995,-0.17311 0.809612,-0.30919 0.9152,-0.30919 1.38709,0 0.646225,0.42343 1.15973,0.42328 1.898208,-5.6e-4 0.552255,-0.31694 0.623194,-0.31138 1.301333,0.10201 0.723391,0.44098 1.436657,0.57748 1.436657,0.27494 z m 78.133445,-0.58334 c -0.13138,-0.49128 -0.38862,-0.61272 -2.76756,-1.30664 -2.48461,-0.72475 -2.61946,-0.74332 -2.56088,-0.35263 0.049,0.32662 0.57498,0.59268 2.52841,1.27885 3.03623,1.06654 2.98154,1.05911 2.80003,0.38042 z m -88.859042,-1.15415 c -0.06124,-0.43119 -0.180459,-0.46653 -1.761455,-0.52218 -1.694658,-0.0596 -1.695773,-0.0593 -1.695773,0.46248 0,0.51859 0.01213,0.52219 1.761456,0.52219 1.709124,0 1.759504,-0.0138 1.695772,-0.46249 z m 40.118986,-3.09703 v -3.35396 l -1.490224,-0.34854 c -0.819623,-0.1917 -1.536473,-0.34736 -1.592999,-0.3459 -0.05653,0.001 -0.09985,1.5057 -0.09627,3.34279 l 0.0065,3.34016 1.535105,0.34003 c 0.844308,0.18701 1.558229,0.34888 1.586492,0.35971 0.02826,0.0108 0.05139,-1.48961 0.05139,-3.33429 z m -4.15738,-0.91071 -0.05636,-3.44248 -1.597752,-0.33692 -1.597752,-0.33691 0.05614,3.52204 0.05614,3.52205 1.336063,0.23225 c 0.734835,0.12775 1.45392,0.24356 1.597968,0.25736 0.204766,0.0196 0.24961,-0.72596 0.205549,-3.41739 z m 53.038776,2.87754 c -0.038,-0.19766 -0.40188,-0.51603 -0.80847,-0.70748 -0.91152,-0.4292 -4.49273,-1.47221 -4.61953,-1.34541 -0.33597,0.33598 0.45671,0.79309 2.64696,1.52637 2.98764,1.00025 2.86791,0.97758 2.78104,0.52652 z m -93.177041,-1.6644 c 0.07983,-0.63898 0.264808,-1.39311 0.411051,-1.67587 0.290024,-0.56073 1.791513,-1.85014 2.15445,-1.85014 0.402883,0 1.739065,0.76937 2.206559,1.27053 0.535308,0.57385 1.086076,2.02739 1.086076,2.86628 0,0.76035 0.549406,0.79441 0.831836,0.0516 0.231947,-0.61006 0.07632,-1.75184 -0.354858,-2.60338 -0.15965,-0.31529 -0.933509,-1.21779 -1.719689,-2.00553 -1.044237,-1.04631 -1.429415,-1.57808 -1.429415,-1.97342 0,-0.65239 0.592854,-1.17044 0.975771,-0.85265 0.316065,0.26232 0.330677,0.0676 0.03621,-0.48271 -0.137742,-0.25738 -0.343014,-0.36682 -0.543597,-0.28985 -0.177256,0.0681 -0.488072,-0.0264 -0.690702,-0.20975 -0.344598,-0.31185 -0.92326,-0.23901 -0.719561,0.0906 0.05091,0.0824 0.01794,0.27053 -0.07328,0.41812 -0.124004,0.20064 -0.269059,0.2131 -0.574958,0.0494 -0.315368,-0.16879 -0.586934,-0.12829 -1.185148,0.17669 -0.42682,0.21761 -0.878835,0.43424 -1.004478,0.48141 -0.147461,0.0553 -0.106708,0.21362 0.114964,0.44647 0.326909,0.34338 0.37027,0.33957 0.902637,-0.0792 0.425077,-0.33436 0.625598,-0.38482 0.835879,-0.2103 0.152156,0.12628 0.402727,0.18122 0.556826,0.12208 0.196277,-0.0753 0.285438,0.0775 0.297743,0.51024 0.01369,0.48141 -0.247805,0.90302 -1.184607,1.91001 -1.519225,1.63306 -1.883584,2.34503 -2.010737,3.92911 -0.101787,1.26804 -0.100986,1.27029 0.416948,1.17128 0.45929,-0.0878 0.535613,-0.23273 0.664085,-1.26098 z m 35.86817,-2.06487 v -3.47202 l -1.464051,-0.33062 c -0.805228,-0.18185 -1.545202,-0.33062 -1.644385,-0.33062 -0.09919,0 -0.180335,1.65935 -0.180335,3.68746 v 3.68745 l 0.770805,0.0806 c 0.423944,0.0444 1.163917,0.0962 1.644386,0.11517 l 0.87358,0.0345 z m -42.342925,1.50501 c 0,-1.70912 -0.01374,-1.7595 -0.462484,-1.69577 -0.43118,0.0612 -0.466524,0.18046 -0.522183,1.76146 -0.05966,1.69465 -0.05936,1.69577 0.462483,1.69577 0.51859,0 0.522184,-0.0121 0.522184,-1.76146 z m 2.575901,1.29468 c 0.06444,-0.25673 0.08932,-1.11233 0.0553,-1.90133 -0.05505,-1.27689 -0.10703,-1.43454 -0.472948,-1.43454 -0.377208,0 -0.415968,0.15674 -0.470197,1.90133 -0.05563,1.78961 -0.03472,1.90132 0.355794,1.90132 0.259967,0 0.45864,-0.1743 0.532048,-0.46678 z m 13.251308,-1.28038 c 0,-1.61013 -0.03224,-1.74716 -0.411096,-1.74716 -0.378853,0 -0.411096,0.13703 -0.411096,1.74716 0,1.61013 0.03224,1.74716 0.411096,1.74716 0.378854,0 0.411096,-0.13703 0.411096,-1.74716 z m 2.463431,0.15416 c -0.0034,-1.74128 -0.157204,-2.19018 -0.681317,-1.98907 -0.269585,0.10346 -0.342673,0.4028 -0.34047,1.39442 0.0037,1.65478 0.159037,2.18765 0.637812,2.18765 0.346101,0 0.386789,-0.1688 0.383975,-1.593 z m 19.70942,-2.30275 c 0,-3.28331 -0.03821,-3.70154 -0.346532,-3.79305 -0.733938,-0.21785 -3.161182,-0.73867 -3.442511,-0.73867 -0.246635,0 -0.295568,0.64332 -0.295568,3.88593 v 3.88593 l 1.490225,0.19747 c 0.819623,0.10861 1.738661,0.20988 2.042305,0.22504 l 0.552081,0.0275 z m 61.690806,2.07098 c 0,-0.57389 -0.30712,-0.74319 -2.67213,-1.47292 -1.18704,-0.36628 -2.27387,-0.70899 -2.41519,-0.7616 -0.15038,-0.056 -0.25693,0.0705 -0.25693,0.30499 0,0.32468 0.4774,0.57719 2.51796,1.3318 3.01321,1.11428 2.82629,1.07475 2.82629,0.59773 z m -0.13698,-2.37394 c 0.16631,-0.43341 -0.15024,-0.60455 -2.6383,-1.42635 -2.57394,-0.85016 -2.8306,-0.88645 -2.73778,-0.38722 0.0478,0.25666 0.77336,0.60595 2.53304,1.21929 2.88441,1.00536 2.70008,0.96682 2.84304,0.59428 z M 51.237115,145.3354 c 0.178824,-0.0687 0.325133,-0.29986 0.325133,-0.51387 0,-0.35708 -0.177692,-0.38911 -2.158255,-0.38911 -2.006377,0 -2.158256,0.0283 -2.158256,0.40278 0,0.36187 0.172258,0.40982 1.695772,0.47204 0.932675,0.038 1.75758,0.088 1.833122,0.11108 0.07554,0.023 0.283661,-0.0144 0.462484,-0.0829 z m 15.741246,-0.47119 c 0,-0.31326 -0.178278,-0.40464 -0.902272,-0.46248 -0.496249,-0.0396 -1.374968,-0.0401 -1.952708,-8.6e-4 -0.870704,0.059 -1.050435,0.13818 -1.050435,0.46249 0,0.35719 0.170035,0.39126 1.952708,0.39126 1.781168,0 1.952707,-0.0343 1.952707,-0.39041 z m 81.337259,-1.31893 c -0.0916,-0.23891 -2.37963,-1.05986 -5.32077,-1.90915 -0.29748,-0.0859 -0.31256,-0.0315 -0.11016,0.39734 0.18837,0.39915 0.72099,0.65659 2.70845,1.3091 2.39501,0.78632 2.96265,0.82858 2.72248,0.20271 z m -98.28853,-1.81676 c 1.469567,-2.27172 1.886675,-3.64545 1.288501,-4.24363 -0.285217,-0.28521 -0.653987,-0.33434 -0.487485,-0.0649 0.125773,0.2035 -0.690295,1.85138 -1.697632,3.428 -0.365594,0.57221 -0.719151,1.37582 -0.785682,1.7858 -0.111372,0.68631 -0.08587,0.73624 0.321636,0.62967 0.253617,-0.0663 0.8346,-0.7217 1.360662,-1.53491 z m 2.462701,0.64471 c 0.670809,-0.96799 0.902558,-2.54601 0.51228,-3.48823 -0.141024,-0.34046 -0.314559,-0.61827 -0.385632,-0.61736 -0.07107,9.2e-4 -0.14152,0.54483 -0.156547,1.20868 -0.03263,1.44142 -0.354591,2.51194 -0.905381,3.0104 -0.506867,0.4587 -0.514067,0.71242 -0.02022,0.71242 0.21529,0 0.633885,-0.36183 0.955497,-0.82591 z m -6.080694,-0.64366 c 0.0079,-0.29953 0.354706,-1.03951 0.770579,-1.64439 2.780262,-4.04385 2.577758,-3.63483 2.458989,-4.96673 -0.138041,-1.54802 -0.269199,-1.66916 -0.451492,-0.41702 -0.191038,1.31222 -0.44939,1.78385 -1.816324,3.3158 -1.334289,1.49537 -1.706708,2.14749 -1.893502,3.31564 -0.106812,0.66797 -0.05486,0.93842 0.243662,1.26827 0.359403,0.39714 0.387189,0.39957 0.526533,0.0462 0.08091,-0.20522 0.153609,-0.61819 0.161555,-0.91772 z M 148.1328,141.31292 c -0.0559,-0.3805 -0.44792,-0.56385 -2.624,-1.2272 -1.40707,-0.42892 -2.59488,-0.74329 -2.63957,-0.69859 -0.32186,0.32185 0.61985,0.90054 2.5529,1.5688 2.67039,0.92316 2.79624,0.93973 2.71067,0.35699 z m -90.001383,-1.02414 c 0.446412,-0.6038 0.498814,-0.62359 0.748198,-0.28254 0.358752,0.49063 1.004405,0.26916 0.726915,-0.24933 -0.107455,-0.20078 -0.379309,-0.53151 -0.604119,-0.73497 -0.396458,-0.35878 -0.430098,-0.35116 -1.118957,0.25367 l -0.710212,0.62357 -0.476762,-0.50749 c -0.262218,-0.27912 -0.509816,-0.47444 -0.550217,-0.43403 -0.13276,0.13276 0.36655,1.24254 0.721204,1.60296 0.499415,0.50754 0.723335,0.45939 1.26395,-0.27184 z m -2.822697,0.084 c 0.333386,-0.37965 0.675819,-1.28467 0.486085,-1.28467 -0.06141,0 -0.407971,0.1802 -0.770134,0.40044 -0.362162,0.22025 -0.748676,0.3447 -0.85892,0.27657 -0.110243,-0.0682 -0.154164,-0.0403 -0.0976,0.062 0.05656,0.10226 0.160447,0.34779 0.230855,0.54562 0.07041,0.19785 0.25533,0.35971 0.410934,0.35971 0.155603,0 0.425056,-0.16186 0.598783,-0.35971 z m 93.06672,-1.26268 c 0,-0.44569 0.0461,-0.42335 -3.03184,-1.46921 -2.28639,-0.77691 -2.31241,-0.78063 -2.31241,-0.33113 0,0.39813 0.31282,0.56018 2.51796,1.30438 2.99546,1.01091 2.82629,0.98123 2.82629,0.49596 z m -88.293955,-0.89557 c -0.213755,-0.6987 -0.341883,-0.87673 -1.066055,-1.48125 l -0.665973,-0.55592 -0.540089,0.42484 c -0.546235,0.42966 -0.715539,0.41149 -1.36535,-0.14656 -0.631878,-0.54266 -0.428001,0.37478 0.262892,1.183 l 0.605895,0.70878 0.571012,-0.54707 0.571011,-0.54706 0.716061,0.69044 c 0.852934,0.82241 1.102014,0.89648 0.910596,0.2708 z m -4.860479,-0.40081 c 0.276672,-0.27668 0.338005,-1.19219 0.07986,-1.19219 -0.09173,0 -0.373925,0.19297 -0.62709,0.42884 -0.364128,0.33923 -0.409914,0.48954 -0.219139,0.71942 0.294553,0.35491 0.446654,0.36363 0.766361,0.044 z m 93.094614,-1.25715 c -0.0629,-0.16397 -1.16204,-0.63804 -2.44248,-1.05347 -1.28045,-0.41543 -2.45148,-0.80652 -2.60232,-0.86908 -0.19035,-0.079 -0.25322,0.0267 -0.20554,0.34558 0.0576,0.38524 0.46664,0.60097 2.53526,1.33713 2.36067,0.84009 2.96594,0.89355 2.71508,0.23984 z m -89.877749,-1.56286 c 0.06423,-0.10393 -0.02941,-0.33517 -0.208099,-0.51386 -0.366003,-0.366 -3.173205,-0.4773 -3.173205,-0.1258 0,0.10951 -0.151366,0.14102 -0.336369,0.07 -0.231084,-0.0886 -0.306463,-0.0384 -0.240825,0.16061 0.08873,0.26904 0.400317,0.32065 3.391351,0.56172 0.247694,0.02 0.50291,-0.0488 0.567147,-0.15269 z m 89.900479,-0.66751 c -0.0551,-0.37386 -0.49255,-0.58799 -2.72347,-1.33328 -1.46177,-0.48834 -2.70721,-0.83845 -2.76763,-0.77803 -0.33061,0.33061 0.57559,0.86734 2.76431,1.63729 2.97724,1.04733 2.80697,1.01772 2.72679,0.47402 z m 1.7e-4,-2.38088 c -0.0866,-0.46453 -5.06658,-2.2243 -5.38719,-1.90369 -0.33144,0.33144 0.0193,0.5343 2.44367,1.41326 2.58062,0.93562 3.04082,1.01229 2.94352,0.49043 z m -82.425246,-0.95236 c 0.05503,-0.67139 0.01155,-0.77751 -0.273746,-0.66803 -0.186546,0.0716 -0.516602,0.13015 -0.733459,0.13015 -0.295908,0 -0.394286,0.14532 -0.394286,0.58239 0,0.73196 0.158993,0.89095 0.814501,0.8145 0.444772,-0.0519 0.531196,-0.17834 0.58699,-0.85901 z m 82.425076,-1.40151 c -0.0553,-0.38088 -0.44005,-0.57513 -2.42949,-1.22656 -2.77368,-0.90821 -3.08681,-0.94839 -2.93738,-0.37692 0.0833,0.31852 0.66645,0.59055 2.6015,1.21358 1.37177,0.44168 2.56994,0.8119 2.6626,0.82275 0.0926,0.0108 0.13889,-0.18395 0.10277,-0.43285 z m -0.0967,-2.31577 c 0.15209,-0.39635 0.10549,-0.4199 -2.68758,-1.35825 -2.31784,-0.77869 -2.71052,-0.8011 -2.72533,-0.15556 -0.004,0.1539 1.0058,0.547 3.28562,1.27961 1.87514,0.60258 1.98143,0.61428 2.12729,0.2342 z m 0.13374,-2.42682 c 0,-0.41632 -0.28478,-0.56178 -2.60112,-1.32855 -1.43061,-0.47358 -2.67933,-0.81272 -2.7749,-0.75364 -0.0956,0.059 -0.17378,0.26613 -0.17378,0.46014 0,0.26799 0.60502,0.55635 2.51796,1.20008 1.38488,0.46602 2.63359,0.85681 2.7749,0.8684 0.14132,0.0116 0.25694,-0.18929 0.25694,-0.44643 z m 0,-2.39312 c 0,-0.3213 -0.46512,-0.54908 -2.51826,-1.2333 -1.38505,-0.46156 -2.6251,-0.83921 -2.75566,-0.83921 -0.13609,0 -0.19158,0.1752 -0.13004,0.41055 0.0833,0.31852 0.66645,0.59056 2.6015,1.21359 2.99415,0.96403 2.80246,0.93336 2.80246,0.44837 z m 0,-2.3438 c 0,-0.4315 -0.25409,-0.55619 -2.67213,-1.31144 -2.00606,-0.62658 -2.67212,-0.76389 -2.67212,-0.55091 0,0.15603 -0.0231,0.35307 -0.0514,0.43787 -0.046,0.13781 4.50373,1.79376 5.1387,1.87033 0.14132,0.0171 0.25694,-0.1836 0.25694,-0.44585 z m 0,-2.37103 c 0,-0.52809 -5.09226,-2.28748 -5.3612,-1.85231 -0.25597,0.41416 -0.0643,0.52149 2.49554,1.39746 2.74471,0.93923 2.86566,0.95843 2.86566,0.45485 z m -0.037,-2.34223 c -0.0555,-0.39076 -0.41632,-0.58034 -2.32672,-1.22243 -2.63243,-0.88479 -2.98044,-0.93006 -2.98044,-0.3877 0,0.31921 0.45833,0.55017 2.41519,1.21707 2.88212,0.98222 2.97748,0.99518 2.89197,0.39306 z m 0,-2.24584 c -0.0531,-0.36181 -0.46959,-0.59876 -2.17886,-1.2397 -2.83565,-1.06329 -3.33385,-1.15681 -3.33385,-0.62586 0,0.34046 0.44794,0.56943 2.62074,1.33958 1.44141,0.51092 2.69654,0.93892 2.7892,0.9511 0.0926,0.0123 0.13889,-0.17911 0.10277,-0.42512 z m 0,-2.47698 c -0.0552,-0.38463 -0.45945,-0.59606 -2.53226,-1.32436 -2.89447,-1.01701 -3.03075,-1.03755 -2.94336,-0.44379 0.0549,0.373 0.48758,0.58973 2.63504,1.31988 1.41314,0.48049 2.64515,0.8809 2.73781,0.88979 0.0926,0.009 0.13889,-0.18978 0.10277,-0.44152 z m 0.037,-2.18926 c 0,-0.54524 -0.243,-0.6839 -2.68484,-1.53209 -2.45762,-0.85369 -2.92698,-0.91961 -2.82633,-0.39702 0.0484,0.2511 0.79157,0.61364 2.50411,1.2215 1.33943,0.47542 2.4869,0.91595 2.54991,0.97897 0.23455,0.23455 0.45715,0.10242 0.45715,-0.27136 z m 0,-2.46976 c 0,-0.214 -0.16187,-0.45533 -0.35971,-0.53628 -0.4763,-0.19489 -5.04649,-1.74674 -5.14415,-1.74674 -0.0418,0 -0.0452,0.16052 -0.007,0.35673 0.0478,0.24792 0.85167,0.65093 2.63581,1.32132 1.41191,0.53053 2.63648,0.97123 2.72127,0.97934 0.0848,0.008 0.15416,-0.16035 0.15416,-0.37437 z m 0,-2.48983 c 0,-0.31509 -0.48173,-0.54484 -2.5606,-1.22116 -1.40832,-0.45818 -2.65704,-0.83306 -2.77489,-0.83306 -0.11787,0 -0.21431,0.16593 -0.21431,0.36873 0,0.28177 0.42236,0.50628 1.79078,0.95193 0.98493,0.32075 2.16426,0.7443 2.62074,0.94122 0.92554,0.39925 1.13828,0.36044 1.13828,-0.20766 z m 0,-2.16438 c 0,-0.1603 -0.21706,-0.43368 -0.48235,-0.6075 -0.44619,-0.29235 -4.52899,-1.748915 -4.90229,-1.748915 -0.0908,0 -0.16516,0.21082 -0.16516,0.468489 0,0.414335 0.30293,0.576346 2.62074,1.401566 1.44141,0.51318 2.69011,0.89814 2.7749,0.85545 0.0848,-0.0427 0.15416,-0.20879 0.15416,-0.36909 z m 0,-2.434021 c 0,-0.426746 -0.35891,-0.634525 -2.15825,-1.249438 -3.53603,-1.208411 -3.39155,-1.180619 -3.39155,-0.652377 0,0.409179 0.28846,0.571508 2.31242,1.301323 2.51447,0.906687 3.23738,1.040777 3.23738,0.600492 z m -0.05,-2.63392 c -0.0575,-0.149919 -1.06415,-0.609227 -2.23693,-1.020684 -3.05184,-1.070696 -2.98949,-1.057519 -3.14058,-0.663782 -0.0726,0.189127 -0.0965,0.37931 -0.0532,0.422628 0.0433,0.04331 1.22483,0.484563 2.62558,0.980544 2.40609,0.851956 3.04885,0.916411 2.80513,0.281294 z m 0.05,-2.003951 c 0,-0.52869 -0.11846,-0.592604 -2.92906,-1.580253 -1.77936,-0.625269 -2.41519,-0.774082 -2.41519,-0.565257 0,0.155895 0.001,0.352818 0.002,0.437607 0.002,0.12778 4.69437,2.013351 5.1876,2.084599 0.0848,0.01225 0.15416,-0.157265 0.15416,-0.376696 z m -0.003,-2.324548 c -0.006,-0.509694 -0.34138,-0.70823 -2.62487,-1.554999 -2.56121,-0.949749 -2.98449,-1.026211 -2.88547,-0.521235 0.0424,0.216131 0.92301,0.690785 2.43026,1.309884 2.51921,1.034764 3.08509,1.175557 3.08008,0.76635 z m 0.003,-2.492797 c 0,-0.155735 -0.11731,-0.380515 -0.26069,-0.499512 -0.38638,-0.320663 -4.95546,-2.060687 -5.13495,-1.955521 -0.34523,0.202266 -0.11905,0.706805 0.4111,0.917037 2.07664,0.823507 4.70082,1.809407 4.83038,1.81477 0.0848,0.0035 0.15416,-0.121039 0.15416,-0.276774 z"
       id="path4"
       sodipodi:nodetypes="csscssscccsssssssssscssssssscccccccccccssccccccccccccssccsssssssssssscssccssssssssssssscscsscssscsscssssscccsssscccscccssssssssssscsssssscsssssssscssssssscsssscsssscsssssscssscccsssscssscssscsssscssscsssssssssssssssscsssssssccssssscccccssscccccccccccsscssssssssscssssssssscsssssscsssssssscsssscssssssssssssssssssssssssssssssccssssscccsssscsscssscsscccccssssssccscccssssscsccssscsssssssscccscccsscccsssscccssccsssssscsssssssssscscccssccccssccsssssscssscssssssssssssscccssssssssssssssssssssssscscscssscscccscssssssssscsscsssscsccsscssscsscsscssscssscccsssscscsscsssssscssssssssssssscssssscssssssssssssssssscccsssscsscssssssssssssssssssssscsscsscsssscssssscsccssssssssssssssscccscsssccsssssssssssscsscsscscsssscscsscsssssscsscsssssccssscccssssscscsscscsssssssscscsssssscssssssssssssssssssssssssscsssssssssssssssssscssscsssscscccssccccccssssccccccsssssssssssssssssssssccccssssssscscscsscssssssssssssssssssccscscssscccccccscscssssscssssssssssccsssscssscssscccccssscccccssssssssssssssssssscsssssscsccssssssssscssssssccsssscssssssssssssssssssssssssssssssssscscscssssscsssssssssssssssssssscssscccsssssssssssssscsscssccssssssssssssssssssssssscssssssscsssssssssssssssssssssssssscssssscssssssscsscscccsssssssssssscssssssssssssscsscscccssscssssss"
       clip-path="url(#clipPath13)"
       transform="translate(0,1.0583333)" /></g></svg>
