<?xml version="1.0" encoding="UTF-8" standalone="no"?>
<!-- Created with Inkscape (http://www.inkscape.org/) -->

<svg
   width="157.91214mm"
   height="158.25468mm"
   viewBox="0 0 157.91214 158.25468"
   version="1.1"
   id="svg1"
   xml:space="preserve"
   xmlns:inkscape="http://www.inkscape.org/namespaces/inkscape"
   xmlns:sodipodi="http://sodipodi.sourceforge.net/DTD/sodipodi-0.dtd"
   xmlns="http://www.w3.org/2000/svg"
   xmlns:svg="http://www.w3.org/2000/svg"><sodipodi:namedview
     id="namedview1"
     pagecolor="#ffffff"
     bordercolor="#000000"
     borderopacity="0.25"
     inkscape:showpageshadow="2"
     inkscape:pageopacity="0.0"
     inkscape:pagecheckerboard="0"
     inkscape:deskcolor="#d1d1d1"
     inkscape:document-units="mm"><inkscape:page
       x="-3.2792052e-13"
       y="0"
       width="157.91216"
       height="158.25468"
       id="page2"
       margin="0"
       bleed="0" /></sodipodi:namedview><defs
     id="defs1" /><g
     inkscape:label="Layer 1"
     inkscape:groupmode="layer"
     id="layer1"
     transform="translate(-25.177947,-55.343483)"><path
       style="fill:#ffffff;fill-opacity:1;stroke:#ffffff;stroke-width:2;stroke-linecap:round;stroke-linejoin:round;stroke-dasharray:none;stroke-opacity:1"
       d="m 98.786008,212.36856 c -10.835433,-0.6875 -20.271123,-3.29903 -30.209863,-8.36122 -21.31046,-10.85425 -36.57083,-31.02129 -41.072011,-54.27793 -1.11502,-5.76107 -1.34753,-8.5085 -1.32477,-15.65465 0.0177,-5.54347 0.12562,-7.43117 0.60535,-10.58334 2.62833,-17.27013 10.095381,-32.076098 22.364451,-44.345172 5.5097,-5.50971 10.762,-9.49982 17.43471,-13.24494 19.25901,-10.8093 43.547285,-12.5598 64.878175,-4.67588 15.01115,5.54813 28.33009,16.12668 37.45752,29.750574 15.65659,23.369528 17.49798,54.059338 4.73768,78.961188 -5.66989,11.06485 -14.28394,21.0413 -24.29481,28.13729 -7.10849,5.0387 -15.51251,9.06186 -24.08165,11.52831 -5.46719,1.57363 -10.01139,2.3468 -16.31114,2.77528 -4.37872,0.29781 -5.3545,0.2969 -10.183642,-0.01 z m -23.844603,-41.18599 -0.0321,-26.92136 -3.67961,-3.56053 -3.67961,-3.56053 -3.43204,3.42442 -3.43204,3.42443 v 22.79949 22.79949 l 1.25677,1.04039 c 0.69122,0.57222 2.20489,1.67563 3.3637,2.45201 2.21994,1.48734 8.77265,5.00946 9.3363,5.01833 0.26265,0.004 0.32412,-5.53583 0.29863,-26.91614 z m 73.483615,17.60194 c 1.02385,-0.76792 2.23969,-1.71595 2.70189,-2.10674 l 0.84035,-0.71052 v -7.29312 -7.29313 h -3.70417 -3.70416 v -7.54062 -7.54062 l -11.31094,-3e-5 -11.31094,-2e-5 v 16.73492 16.73492 l 10.94192,0.13229 c 6.01805,0.0728 11.559,0.16527 12.31321,0.20558 1.29115,0.069 1.48012,-0.008 3.23284,-1.32291 z M 97.727678,144.5258 c 0,-24.95682 -0.0908,-45.376038 -0.20175,-45.376038 -0.11096,0 -1.95643,1.757608 -4.101042,3.905798 l -3.8993,3.90581 v 41.47023 41.47024 h 4.10105 4.101042 z m 15.610412,14.09274 v -31.2833 l -3.36962,-3.37712 c -1.85329,-1.85741 -3.46063,-3.37711 -3.57187,-3.37711 -0.11124,0 -0.20226,15.59718 -0.20226,34.66041 v 34.66042 h 3.57188 3.57187 z m -61.404585,-18.78874 7.74401,-7.77605 7.74402,-7.77604 6.68637,6.68251 6.68638,6.68252 v -17.3293 -17.32929 L 93.494296,90.286212 106.19429,77.588278 v 14.949584 14.949578 l 7.9375,7.93419 7.9375,7.93419 v 12.10634 12.10635 h 3.96875 3.96875 v -5.82084 -5.82083 h 6.88901 6.889 l -0.076,5.82107 -0.076,5.82107 4.69636,-2.4e-4 4.69635,-2.3e-4 v 7.67291 7.67292 h 3.83184 3.83183 l 0.0708,6.54282 0.0708,6.54282 1.61945,-2.50792 c 3.6225,-5.60992 5.76225,-9.95022 7.78796,-15.79715 3.63706,-10.49791 4.71801,-22.76476 3.02233,-34.29796 -3.37025,-22.9225 -18.91505,-43.323852 -40.35144,-52.958142 -17.00847,-7.64422 -36.987912,-8.12299 -54.447555,-1.30474 -15.83792,6.18494 -29.09786,18.237154 -36.80775,33.455272 -3.88688,7.67208 -6.05811,14.73299 -7.20031,23.41563 -0.5128,3.89814 -0.43362,14.01703 0.14078,17.99166 1.61269,11.15928 5.106,20.39713 11.15587,29.50104 1.66991,2.51289 6.04037,8.20165 6.30142,8.20215 -0.0043,-13.95671 -0.06683,-27.9134 -0.11803,-41.87002 z"
       id="path1-2"
       sodipodi:nodetypes="cssssssssssssccscccccccsscscscccccccccccsscssscccccsccssscccccccccccccccccccccccccccccccccccssssssssssc"
       inkscape:export-filename="image4.svg"
       inkscape:export-xdpi="96"
       inkscape:export-ydpi="96" /></g></svg>
